<svg id="Layer_1" data-name="Layer 1" xmlns="http://www.w3.org/2000/svg" viewBox="0 0 400 400"><defs><style>.cls-1{fill:#fff;}.cls-2{font-size:27px;font-family:Seravek-Bold, Seravek;font-weight:700;}</style></defs><title>drag-target</title><path class="cls-1" d="M178.75,98.62q-31.62,0-63.25,0c-3.72,0-4.42.7-4.42,4.34,0,8.33-.08,16.67,0,25,0,2.45-.81,3.3-3.17,3.09a11.13,11.13,0,0,0-4.46.16,3.91,3.91,0,0,0-2.27,2.62c-.09.78,1.14,2.13,2.07,2.51a12.5,12.5,0,0,0,4.19.39c3.57.09,3.58.07,3.59,3.56q0,33.87,0,67.75c0,4.11.64,4.75,4.8,4.75h79.25a10.26,10.26,0,0,1,2.49.06,3.86,3.86,0,0,1,2,1.16,74.53,74.53,0,0,1,4.56,6.17,8.23,8.23,0,0,1,1.46,3.73c.2,3.4.06,6.83.07,10.25,0,11.06,7.64,18.77,18.61,18.86,5.08,0,10.17.1,15.25,0a40.48,40.48,0,0,0,8.42-.9,39.93,39.93,0,0,0,20-66.51c-3.58-3.84-7.4-7.45-11-11.22-2.41-2.49-5.15-4.22-8.69-4.39-1.35-.06-1.89-.71-1.89-2.06q0-14.62,0-29.25c0-1.37.6-1.93,2-1.93a18.64,18.64,0,0,0,5.21-.34,4.11,4.11,0,0,0,2.38-2.57c.38-1.63-.87-2.6-2.5-2.74a26.13,26.13,0,0,0-4.25,0c-2.21.18-2.88-.76-2.86-2.91.09-8.17,0-16.33,0-24.5,0-4.46-.58-5-5.05-5ZM77.28,256.9c0-3.08,0-6.16,0-9.24,0-1.9-.57-3.62-2.87-3.62s-2.81,1.63-2.81,3.6q0,9.24,0,18.49c0,1.92.37,3.56,2.67,3.77,1.86.16,3-1.19,3-3.75C77.33,263.07,77.28,260,77.28,256.9ZM71.6,174.5c0,3.07,0,6.15,0,9.22,0,1.87.55,3.44,2.65,3.52s3-1.52,3-3.47c0-6.31,0-12.63,0-18.94,0-2-.82-3.58-3-3.54s-2.7,1.61-2.69,3.49C71.61,168,71.6,171.26,71.6,174.5Zm0,40.83q0,4.87,0,9.75c0,1.9.68,3.33,2.82,3.34s2.79-1.45,2.81-3.16q.12-9.74,0-19.49c0-1.84-.85-3.3-3-3.2S71.6,204,71.6,205.84Q71.6,210.58,71.6,215.33ZM283,131h-9.24c-1.91,0-3.42.79-3.43,2.8s1.46,2.71,3.25,2.72q9.24,0,18.48,0c1.84,0,3.4-.59,3.36-2.8s-1.55-2.74-3.42-2.74Zm41.53,125.7c0-3.24,0-6.49,0-9.73,0-1.73-.72-3-2.59-3s-2.86,1.11-2.86,3q0,9.86,0,19.71c0,1.85.83,3.09,2.77,3.13s2.66-1.39,2.68-3.16C324.58,263.4,324.56,260.07,324.55,256.75Zm0-82.68c0-3.16,0-6.33,0-9.49,0-1.81-.68-3.25-2.62-3.28s-2.85,1.39-2.85,3.33q0,9.74,0,19.48c0,1.88.86,3.13,2.76,3.14s2.71-1.35,2.71-3.19Q324.56,179.06,324.56,174.07Zm0,41.39q0-4.74,0-9.48c0-1.84-.43-3.43-2.68-3.4s-2.81,1.41-2.8,3.34q0,9.6,0,19.2c0,1.93.74,3.3,2.86,3.29s2.6-1.48,2.61-3.23C324.57,221.94,324.56,218.7,324.57,215.45ZM71.64,138.36a20.74,20.74,0,0,0,.11,5,3.58,3.58,0,0,0,2.37,2.3,3.68,3.68,0,0,0,2.77-1.81,6.89,6.89,0,0,0,.36-3.65c-.21-2.44.42-3.83,3.22-3.46a12.85,12.85,0,0,0,3.23-.18c1.6-.21,2.65-1.07,2.62-2.78a2.56,2.56,0,0,0-2.74-2.65C82,131,80.42,131,78.84,131,71.59,131,71.59,131,71.64,138.36Zm7.51,161.52c1.5,0,3,.05,4.49,0a2.56,2.56,0,0,0,2.67-2.71,2.43,2.43,0,0,0-2.62-2.69c-1.49-.07-3-.08-4.49-.09-1.34,0-2-.61-1.92-2,0-1.58.3-3.29-.21-4.69a4.45,4.45,0,0,0-2.85-2.44c-1.62-.31-2.48,1.09-2.58,2.68s0,3,0,4.49C71.59,299.91,71.59,299.91,79.15,299.88ZM317.24,131.06c-1.41,0-2.83,0-4.24,0-1.8.06-3.18.85-3.18,2.77,0,1.76,1.28,2.61,3,2.73,1.41.1,2.82.22,4.23.18s2.09.64,2.05,2.09,0,2.83,0,4.24a2.57,2.57,0,0,0,2.68,2.7,2.47,2.47,0,0,0,2.71-2.62c.09-1.57.06-3.16.07-4.73C324.58,131,324.58,131,317.24,131.06ZM317,299.88h0c1.5,0,3,0,4.5,0a2.71,2.71,0,0,0,3-3c.05-3,.06-6,0-9a2.51,2.51,0,0,0-2.59-2.77c-1.82,0-2.72,1.07-2.81,2.82-.07,1.41-.08,2.83,0,4.25s-.63,2.14-2.08,2.15-3,0-4.5.08c-1.67.09-2.92,1.18-2.61,2.67a4.47,4.47,0,0,0,2.68,2.63C313.93,300.23,315.55,299.88,317,299.88Zm-171.42-5.45v0c-2.91,0-5.83,0-8.74,0-1.74,0-2.9.87-2.84,2.74s1.22,2.68,3,2.69c5.58,0,11.15,0,16.73,0,1.84,0,3.12-.84,3.1-2.8s-1.41-2.66-3.21-2.67ZM110,299.9h8.5c1.88,0,3.13-.93,3.14-2.8s-1.25-2.64-3-2.65q-8.37,0-16.75,0c-1.85,0-3.18.84-3.13,2.77s1.41,2.69,3.24,2.69Zm105.89-5.47c-2.74,0-5.49,0-8.23,0-1.81,0-3.14.67-3.11,2.72s1.28,2.74,3.12,2.74h16.46c1.82,0,3.15-.77,3.16-2.73s-1.38-2.7-3.17-2.72C221.38,294.41,218.63,294.43,215.89,294.43Zm35.29,0h-8.24c-1.79,0-3.24.61-3.25,2.62s1.41,2.85,3.33,2.85h16.23c1.81,0,3.16-.66,3.22-2.66.06-2.2-1.41-2.81-3.3-2.81Zm35.15,0h-8.25c-1.83,0-3.25.78-3.21,2.7s1.31,2.77,3.2,2.77h16.49c1.85,0,3.15-.83,3.18-2.75s-1.36-2.71-3.18-2.72C291.83,294.42,289.08,294.43,286.34,294.43Zm-105.77,5.46H189c1.77,0,2.88-.85,2.94-2.67s-1-2.76-2.79-2.77q-8.47,0-16.95,0c-1.7,0-3,.77-3,2.62s1.24,2.8,3.09,2.81C175.08,299.91,177.82,299.89,180.56,299.89Z"/><path d="M178.75,98.62h62.5c4.48,0,5,.57,5.05,5,0,8.17.06,16.33,0,24.5,0,2.15.65,3.09,2.86,2.91a26.13,26.13,0,0,1,4.25,0c1.63.13,2.88,1.11,2.5,2.74a4.11,4.11,0,0,1-2.38,2.57,18.64,18.64,0,0,1-5.21.34c-1.37,0-2,.55-2,1.93q0,14.62,0,29.25c0,1.34.53,2,1.89,2.06,3.54.16,6.29,1.9,8.69,4.39,3.65,3.77,7.47,7.38,11,11.22a39.93,39.93,0,0,1-20,66.51,40.48,40.48,0,0,1-8.42.9c-5.08.14-10.17.08-15.25,0-11-.08-18.57-7.8-18.61-18.86,0-3.42.13-6.84-.07-10.25a8.23,8.23,0,0,0-1.46-3.73,74.53,74.53,0,0,0-4.56-6.17,3.86,3.86,0,0,0-2-1.16,10.26,10.26,0,0,0-2.49-.06H115.88c-4.16,0-4.8-.64-4.8-4.75q0-33.87,0-67.75c0-3.49,0-3.47-3.59-3.56a12.5,12.5,0,0,1-4.19-.39c-.93-.37-2.16-1.73-2.07-2.51a3.91,3.91,0,0,1,2.27-2.62,11.13,11.13,0,0,1,4.46-.16c2.36.21,3.21-.64,3.17-3.09-.13-8.33-.06-16.67,0-25,0-3.64.7-4.34,4.42-4.34ZM116.6,207c18.41,0,41.73.18,60.14.18,6.75,0,13.49.05,20.24-.06a3.74,3.74,0,0,0,2.83-1.35,13.69,13.69,0,0,1,7.12-6.32,3.74,3.74,0,0,0,1.92-2.42c1-6.34,4.69-9.78,11.15-10.49a3.59,3.59,0,0,0,2.43-1.83c2.15-5,6.5-7.85,11.85-7.28,1.81.19,2.84-.1,3.72-1.87l2.72-5c.07-1.65,0-5.5,0-6.45q0-28,0-56c0-4,0-4-3.94-4H120.26c-3.64,0-3.67,0-3.67,3.57q0,39.37,0,78.74m96.6,42.91-.86.32a67.22,67.22,0,0,0,.49,7.58c.88,5.05,4.79,9,9.89,9.07,7.55.16,15.24.45,22.63-.76,12.84-2.11,21.44-10.17,25.3-22.49,3.77-12,1.25-23.09-7.35-32.47-3.77-4.11-7.84-7.94-11.8-11.86-2.17-2.15-4.49-2.38-6.43-.74s-2.14,3.65-.4,6.2c1.11,1.63,1.54,3.18,0,4.72-1.36,1.37-3.5,1.27-5.19-.25-1.18-1.05-2.22-2.26-3.39-3.32a4.31,4.31,0,0,0-6.27,0,4.23,4.23,0,0,0-.09,6.24c1.21,1.37,2.84,2.48,3.69,4a5,5,0,0,1,.09,4c-.78,1.56-2.57,1.75-4.15.85a12.77,12.77,0,0,1-2.31-1.87c-1.57-1.48-3-3.09-4.67-4.5a4,4,0,0,0-5.28-.15,4.11,4.11,0,0,0-1.61,4.86,6.42,6.42,0,0,0,1.63,2.44c2.82,2.94,5.74,5.79,8.57,8.74,1.32,1.38,1.53,3,.17,4.47s-3,1.39-4.54.44a10.64,10.64,0,0,1-1.87-1.64c-2.13-2.11-4.21-4.27-6.37-6.34s-4.78-2.27-6.64-.42-1.56,4.47.56,6.65c2.44,2.51,4.91,5,7.38,7.45,3.53,3.53,7.09,7,10.6,10.59,1.76,1.78,1.93,3.68.58,5.06s-3.31,1.49-5.15-.09-3.24-3.11-4.87-4.66C214.8,230.67,214,230,213.2,229.3Z"/><path d="M77.28,256.9c0,3.08,0,6.16,0,9.24,0,2.56-1.15,3.92-3,3.75-2.31-.2-2.68-1.85-2.67-3.77q0-9.24,0-18.49c0-2,.51-3.6,2.81-3.6s2.84,1.72,2.87,3.62C77.31,250.74,77.28,253.82,77.28,256.9Z"/><path d="M71.6,174.5c0-3.24,0-6.48,0-9.72,0-1.88.63-3.46,2.69-3.49s3,1.57,3,3.54c0,6.31,0,12.63,0,18.94,0,2-.81,3.56-3,3.47s-2.66-1.65-2.65-3.52C71.61,180.65,71.6,177.58,71.6,174.5Z"/><path d="M71.6,215.33q0-4.75,0-9.5c0-1.79.61-3.17,2.63-3.27s3,1.36,3,3.2q.11,9.74,0,19.49c0,1.71-.79,3.16-2.81,3.16S71.6,227,71.6,225.08Q71.59,220.21,71.6,215.33Z"/><path d="M283,131h9c1.87,0,3.38.57,3.42,2.74s-1.52,2.79-3.36,2.8q-9.24,0-18.48,0c-1.79,0-3.26-.83-3.25-2.72s1.52-2.8,3.43-2.8Z"/><path d="M324.56,256.75c0,3.33,0,6.65,0,10,0,1.77-.61,3.2-2.68,3.16s-2.77-1.28-2.77-3.13q0-9.86,0-19.71c0-1.9.94-3,2.86-3s2.59,1.25,2.59,3C324.56,250.26,324.55,253.5,324.56,256.75Z"/><path d="M324.56,174.07q0,5,0,10c0,1.84-.76,3.19-2.71,3.19s-2.76-1.25-2.76-3.14q0-9.74,0-19.48c0-1.94.8-3.37,2.85-3.33s2.63,1.47,2.62,3.28C324.56,167.74,324.56,170.9,324.56,174.07Z"/><path d="M324.56,215.45c0,3.24,0,6.48,0,9.73,0,1.76-.54,3.22-2.61,3.23s-2.86-1.36-2.86-3.29q0-9.6,0-19.2c0-1.94.7-3.31,2.8-3.34s2.68,1.56,2.68,3.4Q324.57,210.71,324.56,215.45Z"/><path d="M71.64,138.36c-.05-7.32-.05-7.32,7.2-7.32,1.58,0,3.17,0,4.75.05a2.56,2.56,0,0,1,2.74,2.65c0,1.71-1,2.57-2.62,2.78a12.85,12.85,0,0,1-3.23.18c-2.8-.36-3.43,1-3.22,3.46a6.89,6.89,0,0,1-.36,3.65,3.68,3.68,0,0,1-2.77,1.81,3.58,3.58,0,0,1-2.37-2.3A20.74,20.74,0,0,1,71.64,138.36Z"/><path d="M79.15,299.88c-7.56,0-7.56,0-7.56-7.44,0-1.5,0-3,0-4.49s1-3,2.58-2.68a4.45,4.45,0,0,1,2.85,2.44c.51,1.4.25,3.11.21,4.69,0,1.38.59,2,1.92,2,1.5,0,3,0,4.49.09a2.43,2.43,0,0,1,2.62,2.69,2.56,2.56,0,0,1-2.67,2.71C82.15,299.93,80.65,299.88,79.15,299.88Z"/><path d="M317.24,131.06c7.34,0,7.34,0,7.34,7.36,0,1.58,0,3.16-.07,4.73a2.47,2.47,0,0,1-2.71,2.62,2.57,2.57,0,0,1-2.68-2.7c-.05-1.41-.07-2.83,0-4.24s-.54-2.13-2.05-2.09-2.82-.08-4.23-.18c-1.7-.12-3-1-3-2.73,0-1.91,1.38-2.71,3.18-2.77C314.41,131,315.82,131.06,317.24,131.06Z"/><path d="M317,299.88c-1.5,0-3.12.35-4.46-.11a4.47,4.47,0,0,1-2.68-2.63c-.32-1.49.93-2.58,2.61-2.67,1.5-.08,3-.08,4.5-.08s2.13-.66,2.08-2.15,0-2.83,0-4.25c.08-1.75,1-2.84,2.81-2.82a2.51,2.51,0,0,1,2.59,2.77c.08,3,.07,6,0,9a2.71,2.71,0,0,1-3,3c-1.5,0-3,0-4.5,0Z"/><path d="M145.63,294.43h8c1.81,0,3.19.67,3.21,2.67s-1.26,2.79-3.1,2.8c-5.58,0-11.15,0-16.73,0-1.73,0-2.9-.85-3-2.69s1.1-2.71,2.84-2.74c2.91,0,5.83,0,8.74,0Z"/><path d="M110,299.9h-8c-1.84,0-3.2-.78-3.24-2.69s1.29-2.77,3.13-2.77q8.37,0,16.75,0c1.75,0,3,.87,3,2.65s-1.25,2.8-3.14,2.8Z"/><path d="M215.89,294.43c2.74,0,5.49,0,8.23,0,1.79,0,3.18.72,3.17,2.72s-1.34,2.73-3.16,2.73H207.67c-1.85,0-3.1-.75-3.12-2.74s1.3-2.71,3.11-2.72C210.4,294.42,213.15,294.43,215.89,294.43Z"/><path d="M251.18,294.43h8c1.89,0,3.36.61,3.3,2.81-.06,2-1.41,2.66-3.22,2.66H243c-1.92,0-3.34-.77-3.33-2.85s1.47-2.62,3.25-2.62Z"/><path d="M286.34,294.43c2.75,0,5.5,0,8.25,0,1.81,0,3.2.74,3.18,2.72s-1.33,2.75-3.18,2.75H278.09c-1.89,0-3.16-1-3.2-2.77s1.38-2.7,3.21-2.7Z"/><path d="M180.56,299.89c-2.74,0-5.48,0-8.23,0-1.85,0-3.09-.88-3.09-2.81s1.29-2.61,3-2.62q8.47,0,16.95,0c1.78,0,2.85.93,2.79,2.77s-1.17,2.66-2.94,2.67Z"/><path class="cls-1" d="M213.2,229.3c.79.7,1.6,1.37,2.36,2.1,1.63,1.55,3.17,3.19,4.87,4.66s3.74,1.54,5.15.09,1.17-3.28-.58-5.06c-3.51-3.55-7.07-7.06-10.6-10.59-2.47-2.47-4.95-4.94-7.38-7.45-2.12-2.19-2.32-4.91-.56-6.65s4.41-1.72,6.64.42,4.24,4.24,6.37,6.34a10.64,10.64,0,0,0,1.87,1.64c1.58,1,3.22,1,4.54-.44s1.15-3.09-.17-4.47c-2.82-2.94-5.74-5.79-8.57-8.74a6.42,6.42,0,0,1-1.63-2.44,4.11,4.11,0,0,1,1.61-4.86,4,4,0,0,1,5.28.15c1.63,1.41,3.1,3,4.67,4.5a12.77,12.77,0,0,0,2.31,1.87c1.58.9,3.37.71,4.15-.85a5,5,0,0,0-.09-4c-.85-1.55-2.48-2.65-3.69-4a4.23,4.23,0,0,1,.09-6.24,4.31,4.31,0,0,1,6.27,0c1.17,1.06,2.21,2.27,3.39,3.32,1.69,1.51,3.83,1.62,5.19.25,1.53-1.54,1.09-3.09,0-4.72-1.74-2.55-1.56-4.55.4-6.2s4.26-1.41,6.43.74c4,3.92,8,7.76,11.8,11.86,8.6,9.38,11.12,20.45,7.35,32.47-3.87,12.32-12.47,20.38-25.3,22.49-7.39,1.22-15.09.92-22.63.76-5.1-.11-9-4-9.89-9.07a67.22,67.22,0,0,1-.49-7.58Z"/><text class="cls-2" transform="translate(126.04 131.04)">&lt; xml &gt;</text><text class="cls-2" transform="translate(149.26 155.57)">...</text></svg>