<svg xmlns="http://www.w3.org/2000/svg" viewBox="0 0 134.26 159.11"><title>greek-sigma</title><g id="Layer_2" data-name="Layer 2"><g id="Layer_1-2" data-name="Layer 1"><path d="M134,124.79a1.8,1.8,0,0,0-1.23-1l-.24-.08c-1.87,0-5.75,0-10.8,0l-8.76,0a6.47,6.47,0,0,0-.75.31,16.65,16.65,0,0,0-.9,1.77l0,.09v10H32.65l10-11.58c1.82-2.11,28.66-33.57,38.13-44.69-10-11.84-36.57-43.06-38.15-44.87L32.59,23.14h78.17l.34,6.64.09,1.81.12,2.25a2.91,2.91,0,0,0,1.44,1.51h5.47c5.76,0,12.06,0,14.59-.06A2.6,2.6,0,0,0,134,34.19c0-5.12,0-25.74,0-30.56a4.59,4.59,0,0,0-1.62-2.3,16.14,16.14,0,0,0-2-1L130,.14l-.26,0L128.66,0C119.39,0,20.57.22,10,.33L9.08.6,8.24.86,7.06,1.6a19.89,19.89,0,0,0-3,2.08A23,23,0,0,0,1.24,7.55l-.5.78L.2,10,.07,11.87a30.63,30.63,0,0,0,.15,3.48,11.15,11.15,0,0,0,2.71,6C4.31,22.92,46.08,71,49.49,74.91l4.17,4.75L49.4,84.24c-.68.77-7.78,8.94-15.3,17.59C18.93,119.3,8,131.91,6.42,133.65l-1,1.16c-.78.93-1.56,1.86-2.35,2.78A12.8,12.8,0,0,0,.74,150.26,12.62,12.62,0,0,0,10,158.61c6.31.37,75.73.5,118.67.5l1.1-.12a5.42,5.42,0,0,0,4.38-4l.15-1.67c0-4.78-.05-22.91-.08-28.13C134.09,125.06,134,124.91,134,124.79Z"/></g></g></svg>