<svg xmlns="http://www.w3.org/2000/svg" viewBox="0 0 148.25 173.11"><title>sigma</title><g id="Layer_2" data-name="Layer 2"><g id="Layer_1-2" data-name="Layer 1"><path d="M15.91,172.54C1.09,169.62-5.07,151.43,4.8,140c1.13-1.31,2.23-2.63,3.34-4,1.53-1.66,42.47-48.86,43.09-49.53C47.58,82.36,5.8,34.25,4.59,32.82A18.17,18.17,0,0,1,.27,23.22C0,21,.11,18.81,0,16.6l.19-.25,0-.67,1.09-3.4C2.88,10,4.29,7.51,6.26,5.62c1.73-1.66,4-2.8,6-4.17L15.86.35C18.79.23,131.87,0,136,0l2.93.3a37.9,37.9,0,0,1,4.37,2.23A12.39,12.39,0,0,1,148,9.34c.09,1,.11,31.4,0,33.21a9.89,9.89,0,0,1-6.83,6.72c-1.72.08-20.9.12-22.56.05a9.93,9.93,0,0,1-7.25-7.23l-.26-5H54.93c2.36,2.72,41.22,48.48,42,49.46l-.78,1C93,91.29,57.22,133.26,55,135.87h56.25v-4.64c.89-1.7,1.57-3.68,2.89-5.11a10.39,10.39,0,0,1,4.63-2.44c1.61,0,20.5,0,22.11,0,.31.12.61.27.93.37a8.77,8.77,0,0,1,5.38,4.48c.38.72.67,1.5,1,2.24,0,1.76.1,25.77.1,29.9L148,163.4c-1.5,5.2-4.82,8.44-10.18,9.51l-1.82.2C131.87,173.11,18.75,173.1,15.91,172.54Z"/></g></g></svg>