<svg xmlns="http://www.w3.org/2000/svg" xmlns:xlink="http://www.w3.org/1999/xlink" viewBox="0 0 400 400"><defs><style>.cls-1{fill:none;}.cls-2{clip-path:url(#clip-path);}.cls-3{clip-path:url(#clip-path-2);}.cls-4{clip-path:url(#clip-path-3);}</style><clipPath id="clip-path"><polygon class="cls-1" points="183.63 63.04 148.58 56.48 157.48 114.77 161.36 116.26 183.63 63.04"/></clipPath><clipPath id="clip-path-2"><polygon class="cls-1" points="160.85 117.33 96.14 102.82 108.49 70.96 161.93 112.19 160.85 117.33"/></clipPath><clipPath id="clip-path-3"><path class="cls-1" d="M159,115.33,61.66,86,21.77,15.46l120.6,40.69,19,56.68A2,2,0,0,1,159,115.33Z"/></clipPath></defs><title>Artboard 1</title><g id="Layer_1" data-name="Layer 1"><path d="M95.16,144.13H308.38c-.08.82-.12,1.59-.22,2.35q-2.37,16.77-4.75,33.53-3.56,25.35-7.1,50.7-4,28.39-8,56.78-3.09,21.91-6.22,43.82c-.33,2.34-.58,4.69-.93,7-.48,3.24-2,4.53-5.32,4.52-4.36,0-8.72-.06-13.08-.06h-135c-3.63,0-5-1.19-5.5-4.83q-4.88-34.63-9.75-69.26c-2-13.93-3.88-27.87-5.85-41.8q-4.54-32.13-9.11-64.26c-.82-5.82-1.61-11.65-2.4-17.47A8.59,8.59,0,0,1,95.16,144.13Zm169.3,41.1c.19-5-3.11-8.86-7.76-9.2a8.45,8.45,0,0,0-9.32,8q-1.92,21.18-3.77,42.37-1.9,21.5-3.76,43c-.92,10.62-1.79,21.24-2.72,31.86a8.62,8.62,0,1,0,17.16,1.56c.4-4.76.77-9.53,1.19-14.28q1.61-18.2,3.25-36.4,1.5-16.95,3-33.9Q263.09,201.71,264.46,185.23Zm-98,116.83c-1.09-12.6-2.14-24.94-3.22-37.29-.83-9.47-1.72-18.93-2.54-28.4q-2.27-26.13-4.5-52.27a8.83,8.83,0,0,0-6.1-7.68A8.65,8.65,0,0,0,139,185.55c.61,7.17,1.29,14.33,1.92,21.5q1.33,15.15,2.63,30.3,1.34,15.3,2.7,30.6c1,11.77,2,23.55,3.15,35.31a8.58,8.58,0,0,0,17.11-1.19Zm43.83-58.81q0-29,0-58a12.53,12.53,0,0,0-.39-3.57,8.33,8.33,0,0,0-9.16-5.8,8.59,8.59,0,0,0-7.59,8.32c0,7.09,0,14.18,0,21.27q0,30.57,0,61.14,0,17.65,0,35.3a11.32,11.32,0,0,0,.14,2.19,8.6,8.6,0,0,0,8.86,6.94c4.81-.4,8.09-3.77,8.15-8.55.06-4.94,0-9.87,0-14.81Q210.28,265.47,210.29,243.25Z"/></g><g id="Layer_2" data-name="Layer 2"><path d="M310.85,84.11,320.54,89c10.75,5.4,21.51,10.77,32.23,16.2a17.64,17.64,0,0,1,8,23.18c-2.57,5.46-5.38,10.81-8,16.24-.53,1.09-1.06,1.14-2.07.63Q327.59,133.57,304.51,122c-6.71-3.37-13.44-6.7-20.15-10.07q-27.11-13.6-54.2-27.23L173.86,56.35,145.42,42.06l-1.77-.89c.23-.55.38-1,.58-1.39,2.57-5.17,5.12-10.35,7.72-15.51A17.77,17.77,0,0,1,176,16.33q19.86,9.95,39.7,19.94l1.92,1L219.28,34c4.36-8.63,11.53-13.25,21-14.46a24,24,0,0,1,14.05,2.56q23.5,11.84,47,23.67a26.14,26.14,0,0,1,11.54,34.42C312.21,81.43,311.57,82.68,310.85,84.11ZM264.2,60.68l0-.05q14.93,7.5,29.85,15c.82.41,1.33.4,1.72-.52s1.06-2.06,1.5-3.12a8.21,8.21,0,0,0-3.82-10.65q-23.54-11.94-47.15-23.74a8.24,8.24,0,0,0-10.86,3.19c-.5.8-.9,1.66-1.33,2.5-.91,1.81-.91,1.82.93,2.74Z"/></g><g id="Layer_3" data-name="Layer 3"><g class="cls-2"><path d="M176.06,74.76a55.14,55.14,0,0,0-6.41,11.64A120.24,120.24,0,0,0,164.94,100,212.93,212.93,0,0,0,159,129a216.91,216.91,0,0,1-2-30.14,130.46,130.46,0,0,1,1-15.51,69.48,69.48,0,0,1,3.9-16.11l.11-.28a8.1,8.1,0,1,1,15.11,5.84A8.38,8.38,0,0,1,176.06,74.76Z"/></g><g class="cls-3"><path d="M114.06,86.27c6,2.33,11.38,4.95,16.78,7.69s10.63,5.64,15.8,8.67,10.24,6.19,15.18,9.54A144.39,144.39,0,0,1,176,123a142.43,142.43,0,0,0-16-7.29c-5.46-2.12-11-4-16.57-5.77s-11.18-3.34-16.79-4.76-11.28-2.67-16.65-3.46A8.05,8.05,0,1,1,114,86.24Z"/></g><g class="cls-4"><path d="M47.7,28.72a146.95,146.95,0,0,1,79.93,38.91A160.69,160.69,0,0,1,155,102.06a187.18,187.18,0,0,1,17.65,39.73,185.15,185.15,0,0,0-21-37.52,154.68,154.68,0,0,0-29.3-30.58A137.56,137.56,0,0,0,86.18,53.13,134.29,134.29,0,0,0,46,44.63a8,8,0,0,1,.89-16q.37,0,.72.07Z"/></g></g></svg>